<mxfile host="app.diagrams.net" modified="2023-04-07T20:53:17.258Z" agent="Mozilla/5.0 (Windows NT 10.0; Win64; x64) AppleWebKit/537.36 (KHTML, like Gecko) Chrome/112.0.0.0 Safari/537.36" etag="0i7PgUKrqmp8-ZVFWx1t" version="21.1.4" type="google">
  <diagram name="Page-1" id="O7E4ZkBHjbpyCeYc38g7">
    <mxGraphModel dx="4103" dy="2388" grid="1" gridSize="10" guides="1" tooltips="1" connect="1" arrows="1" fold="1" page="1" pageScale="1" pageWidth="850" pageHeight="1100" math="0" shadow="0">
      <root>
        <mxCell id="0" />
        <mxCell id="1" parent="0" />
        <mxCell id="gBHTzKcn6HgEQNSfiFQi-175" value="&lt;font style=&quot;font-size: 20px;&quot;&gt;&lt;b&gt;&lt;br&gt;&lt;br&gt;&lt;br&gt;&lt;br&gt;&lt;br&gt;&lt;br&gt;BATTERY MODULE X&lt;br&gt;&lt;/b&gt;&lt;/font&gt;" style="whiteSpace=wrap;html=1;strokeColor=#6c8ebf;fillColor=#dae8fc;strokeWidth=3;" vertex="1" parent="1">
          <mxGeometry x="80" y="660" width="780" height="210" as="geometry" />
        </mxCell>
        <mxCell id="gBHTzKcn6HgEQNSfiFQi-5" value="&lt;font style=&quot;font-size: 20px;&quot;&gt;&lt;b&gt;&lt;br&gt;&lt;br&gt;&lt;br&gt;&lt;br&gt;&lt;br&gt;&lt;br&gt;&lt;br&gt;&amp;nbsp; &amp;nbsp;SLAVE BOARD X&lt;/b&gt;&lt;/font&gt;" style="whiteSpace=wrap;html=1;strokeColor=#9673a6;fillColor=#e1d5e7;strokeWidth=3;align=left;" vertex="1" parent="1">
          <mxGeometry x="80" y="80" width="780" height="560" as="geometry" />
        </mxCell>
        <mxCell id="gBHTzKcn6HgEQNSfiFQi-12" value="&lt;font style=&quot;font-size: 20px;&quot;&gt;&lt;b&gt;MASTER BOARD&lt;br&gt;&lt;/b&gt;&lt;/font&gt;" style="whiteSpace=wrap;html=1;strokeColor=#82b366;fillColor=#d5e8d4;strokeWidth=3;" vertex="1" parent="1">
          <mxGeometry x="210" y="-300" width="640" height="260" as="geometry" />
        </mxCell>
        <mxCell id="ShtHZLeGs-ZwjaO9lGIc-156" value="" style="rounded=1;whiteSpace=wrap;html=1;fillColor=none;dashed=1;fontStyle=1;strokeWidth=2;" parent="1" vertex="1">
          <mxGeometry x="200" y="570" width="550" height="230" as="geometry" />
        </mxCell>
        <mxCell id="ShtHZLeGs-ZwjaO9lGIc-1" value="&lt;font style=&quot;font-size: 20px;&quot;&gt;LTC6813&lt;br&gt;Battery Stack Monitor&lt;/font&gt;" style="whiteSpace=wrap;html=1;aspect=fixed;strokeColor=#6F0000;fillColor=#a20025;strokeWidth=3;fontColor=#ffffff;" parent="1" vertex="1">
          <mxGeometry x="300" y="220" width="320" height="320" as="geometry" />
        </mxCell>
        <mxCell id="gBHTzKcn6HgEQNSfiFQi-10" value="" style="edgeStyle=orthogonalEdgeStyle;rounded=0;orthogonalLoop=1;jettySize=auto;html=1;entryX=0.297;entryY=0.005;entryDx=0;entryDy=0;entryPerimeter=0;startArrow=classic;startFill=1;" edge="1" parent="1" source="ShtHZLeGs-ZwjaO9lGIc-3" target="ShtHZLeGs-ZwjaO9lGIc-1">
          <mxGeometry relative="1" as="geometry" />
        </mxCell>
        <mxCell id="gBHTzKcn6HgEQNSfiFQi-15" value="" style="edgeStyle=orthogonalEdgeStyle;rounded=0;orthogonalLoop=1;jettySize=auto;html=1;entryX=0.5;entryY=1;entryDx=0;entryDy=0;startArrow=classic;startFill=1;" edge="1" parent="1" target="gBHTzKcn6HgEQNSfiFQi-13">
          <mxGeometry relative="1" as="geometry">
            <mxPoint x="525.0000000000005" y="120" as="sourcePoint" />
            <mxPoint x="525" y="45" as="targetPoint" />
          </mxGeometry>
        </mxCell>
        <mxCell id="ShtHZLeGs-ZwjaO9lGIc-3" value="Downstream isoSPI connector" style="rounded=0;whiteSpace=wrap;html=1;" parent="1" vertex="1">
          <mxGeometry x="350" y="120" width="90" height="50" as="geometry" />
        </mxCell>
        <mxCell id="gBHTzKcn6HgEQNSfiFQi-11" value="" style="edgeStyle=orthogonalEdgeStyle;rounded=0;orthogonalLoop=1;jettySize=auto;html=1;entryX=0.702;entryY=0.003;entryDx=0;entryDy=0;entryPerimeter=0;startArrow=classic;startFill=1;" edge="1" parent="1" source="ShtHZLeGs-ZwjaO9lGIc-4" target="ShtHZLeGs-ZwjaO9lGIc-1">
          <mxGeometry relative="1" as="geometry" />
        </mxCell>
        <mxCell id="ShtHZLeGs-ZwjaO9lGIc-4" value="Upstream isoSPI connector" style="rounded=0;whiteSpace=wrap;html=1;" parent="1" vertex="1">
          <mxGeometry x="480" y="120" width="90" height="50" as="geometry" />
        </mxCell>
        <mxCell id="ShtHZLeGs-ZwjaO9lGIc-7" value="Battery Cell - n" style="shape=process;whiteSpace=wrap;html=1;backgroundOutline=1;direction=west;flipV=1;flipH=1;" parent="1" vertex="1">
          <mxGeometry x="250" y="710" width="100" height="60" as="geometry" />
        </mxCell>
        <mxCell id="ShtHZLeGs-ZwjaO9lGIc-8" value="Battery Cell - 2" style="shape=process;whiteSpace=wrap;html=1;backgroundOutline=1;direction=west;" parent="1" vertex="1">
          <mxGeometry x="370" y="710" width="100" height="60" as="geometry" />
        </mxCell>
        <mxCell id="ShtHZLeGs-ZwjaO9lGIc-16" value="Battery Cell Connector (Cn/Sn)" style="rounded=0;whiteSpace=wrap;html=1;strokeWidth=2;" parent="1" vertex="1">
          <mxGeometry x="320" y="590" width="270" height="30" as="geometry" />
        </mxCell>
        <mxCell id="ShtHZLeGs-ZwjaO9lGIc-18" value="" style="endArrow=none;html=1;rounded=0;entryX=0.484;entryY=1;entryDx=0;entryDy=0;entryPerimeter=0;" parent="1" target="ShtHZLeGs-ZwjaO9lGIc-1" edge="1">
          <mxGeometry width="50" height="50" relative="1" as="geometry">
            <mxPoint x="455" y="590" as="sourcePoint" />
            <mxPoint x="390" y="570" as="targetPoint" />
          </mxGeometry>
        </mxCell>
        <mxCell id="ShtHZLeGs-ZwjaO9lGIc-45" value="Battery Cell - 1" style="shape=process;whiteSpace=wrap;html=1;backgroundOutline=1;direction=west;" parent="1" vertex="1">
          <mxGeometry x="490" y="710" width="100" height="60" as="geometry" />
        </mxCell>
        <mxCell id="ShtHZLeGs-ZwjaO9lGIc-47" value="" style="endArrow=none;html=1;rounded=0;dashed=1;" parent="1" source="ShtHZLeGs-ZwjaO9lGIc-64" edge="1">
          <mxGeometry width="50" height="50" relative="1" as="geometry">
            <mxPoint x="470" y="739.88" as="sourcePoint" />
            <mxPoint x="490" y="740.02" as="targetPoint" />
          </mxGeometry>
        </mxCell>
        <mxCell id="ShtHZLeGs-ZwjaO9lGIc-48" value="" style="endArrow=none;html=1;rounded=0;entryX=0.035;entryY=1.042;entryDx=0;entryDy=0;entryPerimeter=0;fillColor=#e51400;strokeColor=#B20000;exitX=0.5;exitY=0;exitDx=0;exitDy=0;" parent="1" source="ShtHZLeGs-ZwjaO9lGIc-59" target="ShtHZLeGs-ZwjaO9lGIc-16" edge="1">
          <mxGeometry width="50" height="50" relative="1" as="geometry">
            <mxPoint x="230" y="720" as="sourcePoint" />
            <mxPoint x="430" y="690" as="targetPoint" />
            <Array as="points">
              <mxPoint x="245" y="690" />
              <mxPoint x="330" y="690" />
            </Array>
          </mxGeometry>
        </mxCell>
        <mxCell id="ShtHZLeGs-ZwjaO9lGIc-49" value="" style="endArrow=none;html=1;rounded=0;entryX=0.167;entryY=1.067;entryDx=0;entryDy=0;entryPerimeter=0;fillColor=#e51400;strokeColor=#B20000;exitX=0.5;exitY=0;exitDx=0;exitDy=0;" parent="1" source="ShtHZLeGs-ZwjaO9lGIc-62" target="ShtHZLeGs-ZwjaO9lGIc-16" edge="1">
          <mxGeometry width="50" height="50" relative="1" as="geometry">
            <mxPoint x="480" y="740" as="sourcePoint" />
            <mxPoint x="530" y="560" as="targetPoint" />
            <Array as="points">
              <mxPoint x="365" y="670" />
            </Array>
          </mxGeometry>
        </mxCell>
        <mxCell id="ShtHZLeGs-ZwjaO9lGIc-50" value="" style="curved=1;endArrow=classic;html=1;rounded=0;entryX=1;entryY=0.883;entryDx=0;entryDy=0;entryPerimeter=0;strokeWidth=2;exitX=0;exitY=0.5;exitDx=0;exitDy=0;" parent="1" source="ShtHZLeGs-ZwjaO9lGIc-54" target="ShtHZLeGs-ZwjaO9lGIc-1" edge="1">
          <mxGeometry width="50" height="50" relative="1" as="geometry">
            <mxPoint x="660" y="830" as="sourcePoint" />
            <mxPoint x="780" y="780" as="targetPoint" />
            <Array as="points">
              <mxPoint x="750" y="740" />
              <mxPoint x="790" y="710" />
              <mxPoint x="790" y="570" />
              <mxPoint x="750" y="500" />
            </Array>
          </mxGeometry>
        </mxCell>
        <mxCell id="ShtHZLeGs-ZwjaO9lGIc-51" value="" style="endArrow=none;html=1;rounded=0;fillColor=#e51400;strokeColor=#000000;" parent="1" edge="1">
          <mxGeometry width="50" height="50" relative="1" as="geometry">
            <mxPoint x="730" y="740" as="sourcePoint" />
            <mxPoint x="580" y="620" as="targetPoint" />
            <Array as="points">
              <mxPoint x="730" y="660" />
              <mxPoint x="580" y="660" />
            </Array>
          </mxGeometry>
        </mxCell>
        <mxCell id="ShtHZLeGs-ZwjaO9lGIc-53" value="" style="endArrow=none;html=1;rounded=0;dashed=1;" parent="1" source="ShtHZLeGs-ZwjaO9lGIc-62" edge="1">
          <mxGeometry width="50" height="50" relative="1" as="geometry">
            <mxPoint x="350" y="739.88" as="sourcePoint" />
            <mxPoint x="370" y="740.02" as="targetPoint" />
          </mxGeometry>
        </mxCell>
        <mxCell id="ShtHZLeGs-ZwjaO9lGIc-54" value="Battery Cell - 0" style="shape=process;whiteSpace=wrap;html=1;backgroundOutline=1;direction=west;" parent="1" vertex="1">
          <mxGeometry x="610" y="710" width="100" height="60" as="geometry" />
        </mxCell>
        <mxCell id="ShtHZLeGs-ZwjaO9lGIc-55" value="" style="endArrow=none;html=1;rounded=0;dashed=1;" parent="1" edge="1">
          <mxGeometry width="50" height="50" relative="1" as="geometry">
            <mxPoint x="590" y="739.88" as="sourcePoint" />
            <mxPoint x="610" y="740.02" as="targetPoint" />
          </mxGeometry>
        </mxCell>
        <mxCell id="ShtHZLeGs-ZwjaO9lGIc-56" value="" style="endArrow=none;html=1;rounded=0;fillColor=#e51400;strokeColor=#B20000;exitX=0.5;exitY=0;exitDx=0;exitDy=0;" parent="1" source="ShtHZLeGs-ZwjaO9lGIc-66" edge="1">
          <mxGeometry width="50" height="50" relative="1" as="geometry">
            <mxPoint x="600" y="740" as="sourcePoint" />
            <mxPoint x="550" y="620" as="targetPoint" />
            <Array as="points">
              <mxPoint x="605" y="688" />
              <mxPoint x="550" y="688" />
            </Array>
          </mxGeometry>
        </mxCell>
        <mxCell id="ShtHZLeGs-ZwjaO9lGIc-59" value="" style="rounded=0;whiteSpace=wrap;html=1;fillColor=#e51400;fontColor=#ffffff;strokeColor=#B20000;flipV=1;flipH=1;" parent="1" vertex="1">
          <mxGeometry x="240" y="730" width="10" height="20" as="geometry" />
        </mxCell>
        <mxCell id="ShtHZLeGs-ZwjaO9lGIc-63" value="" style="endArrow=none;html=1;rounded=0;dashed=1;" parent="1" target="ShtHZLeGs-ZwjaO9lGIc-62" edge="1">
          <mxGeometry width="50" height="50" relative="1" as="geometry">
            <mxPoint x="350" y="739.88" as="sourcePoint" />
            <mxPoint x="370" y="740.02" as="targetPoint" />
          </mxGeometry>
        </mxCell>
        <mxCell id="ShtHZLeGs-ZwjaO9lGIc-62" value="" style="rounded=0;whiteSpace=wrap;html=1;fillColor=#e51400;fontColor=#ffffff;strokeColor=#B20000;" parent="1" vertex="1">
          <mxGeometry x="360" y="730" width="10" height="20" as="geometry" />
        </mxCell>
        <mxCell id="ShtHZLeGs-ZwjaO9lGIc-65" value="" style="endArrow=none;html=1;rounded=0;dashed=1;" parent="1" target="ShtHZLeGs-ZwjaO9lGIc-64" edge="1">
          <mxGeometry width="50" height="50" relative="1" as="geometry">
            <mxPoint x="470" y="739.88" as="sourcePoint" />
            <mxPoint x="490" y="740.02" as="targetPoint" />
          </mxGeometry>
        </mxCell>
        <mxCell id="ShtHZLeGs-ZwjaO9lGIc-64" value="" style="rounded=0;whiteSpace=wrap;html=1;fillColor=#e51400;fontColor=#ffffff;strokeColor=#B20000;" parent="1" vertex="1">
          <mxGeometry x="480" y="730" width="10" height="20" as="geometry" />
        </mxCell>
        <mxCell id="ShtHZLeGs-ZwjaO9lGIc-66" value="" style="rounded=0;whiteSpace=wrap;html=1;fillColor=#e51400;fontColor=#ffffff;strokeColor=#B20000;" parent="1" vertex="1">
          <mxGeometry x="600" y="730" width="10" height="20" as="geometry" />
        </mxCell>
        <mxCell id="ShtHZLeGs-ZwjaO9lGIc-67" value="" style="endArrow=none;html=1;rounded=0;entryX=0.296;entryY=1;entryDx=0;entryDy=0;entryPerimeter=0;fillColor=#e51400;strokeColor=#B20000;exitX=0.5;exitY=0;exitDx=0;exitDy=0;" parent="1" target="ShtHZLeGs-ZwjaO9lGIc-16" edge="1">
          <mxGeometry width="50" height="50" relative="1" as="geometry">
            <mxPoint x="486" y="730" as="sourcePoint" />
            <mxPoint x="480" y="562" as="targetPoint" />
            <Array as="points">
              <mxPoint x="486" y="680" />
              <mxPoint x="400" y="680" />
            </Array>
          </mxGeometry>
        </mxCell>
        <mxCell id="ShtHZLeGs-ZwjaO9lGIc-95" value="" style="endArrow=none;html=1;rounded=0;fillColor=#e51400;strokeColor=#B20000;" parent="1" edge="1">
          <mxGeometry width="50" height="50" relative="1" as="geometry">
            <mxPoint x="220" y="270" as="sourcePoint" />
            <mxPoint x="300" y="270" as="targetPoint" />
          </mxGeometry>
        </mxCell>
        <mxCell id="ShtHZLeGs-ZwjaO9lGIc-96" value="" style="endArrow=none;html=1;rounded=0;entryX=0;entryY=0.344;entryDx=0;entryDy=0;entryPerimeter=0;fillColor=#e51400;strokeColor=#B20000;" parent="1" edge="1">
          <mxGeometry width="50" height="50" relative="1" as="geometry">
            <mxPoint x="220" y="290" as="sourcePoint" />
            <mxPoint x="300" y="290" as="targetPoint" />
          </mxGeometry>
        </mxCell>
        <mxCell id="ShtHZLeGs-ZwjaO9lGIc-98" value="" style="endArrow=none;html=1;rounded=0;entryX=0;entryY=0.344;entryDx=0;entryDy=0;entryPerimeter=0;fillColor=#e51400;strokeColor=#B20000;" parent="1" edge="1">
          <mxGeometry width="50" height="50" relative="1" as="geometry">
            <mxPoint x="220" y="310" as="sourcePoint" />
            <mxPoint x="300" y="310" as="targetPoint" />
          </mxGeometry>
        </mxCell>
        <mxCell id="ShtHZLeGs-ZwjaO9lGIc-99" value="" style="endArrow=none;html=1;rounded=0;entryX=0;entryY=0.344;entryDx=0;entryDy=0;entryPerimeter=0;fillColor=#e51400;strokeColor=#B20000;" parent="1" edge="1">
          <mxGeometry width="50" height="50" relative="1" as="geometry">
            <mxPoint x="220" y="330" as="sourcePoint" />
            <mxPoint x="300" y="330" as="targetPoint" />
          </mxGeometry>
        </mxCell>
        <mxCell id="ShtHZLeGs-ZwjaO9lGIc-100" value="" style="endArrow=none;html=1;rounded=0;entryX=0;entryY=0.344;entryDx=0;entryDy=0;entryPerimeter=0;fillColor=#e51400;strokeColor=#B20000;" parent="1" edge="1">
          <mxGeometry width="50" height="50" relative="1" as="geometry">
            <mxPoint x="220" y="350" as="sourcePoint" />
            <mxPoint x="300" y="350" as="targetPoint" />
          </mxGeometry>
        </mxCell>
        <mxCell id="ShtHZLeGs-ZwjaO9lGIc-101" value="" style="endArrow=none;html=1;rounded=0;entryX=0;entryY=0.344;entryDx=0;entryDy=0;entryPerimeter=0;fillColor=#e51400;strokeColor=#B20000;" parent="1" edge="1">
          <mxGeometry width="50" height="50" relative="1" as="geometry">
            <mxPoint x="220" y="370" as="sourcePoint" />
            <mxPoint x="300" y="370" as="targetPoint" />
          </mxGeometry>
        </mxCell>
        <mxCell id="ShtHZLeGs-ZwjaO9lGIc-122" value="" style="endArrow=none;html=1;rounded=0;entryX=0;entryY=0.344;entryDx=0;entryDy=0;entryPerimeter=0;fillColor=#e51400;strokeColor=#000000;" parent="1" edge="1">
          <mxGeometry width="50" height="50" relative="1" as="geometry">
            <mxPoint x="150" y="270" as="sourcePoint" />
            <mxPoint x="190" y="269.86" as="targetPoint" />
          </mxGeometry>
        </mxCell>
        <mxCell id="ShtHZLeGs-ZwjaO9lGIc-123" value="" style="endArrow=none;html=1;rounded=0;entryX=0;entryY=0.344;entryDx=0;entryDy=0;entryPerimeter=0;fillColor=#e51400;strokeColor=#000000;" parent="1" edge="1">
          <mxGeometry width="50" height="50" relative="1" as="geometry">
            <mxPoint x="150" y="290" as="sourcePoint" />
            <mxPoint x="190" y="289.86" as="targetPoint" />
          </mxGeometry>
        </mxCell>
        <mxCell id="ShtHZLeGs-ZwjaO9lGIc-124" value="" style="endArrow=none;html=1;rounded=0;entryX=0;entryY=0.344;entryDx=0;entryDy=0;entryPerimeter=0;fillColor=#e51400;strokeColor=#000000;" parent="1" edge="1">
          <mxGeometry width="50" height="50" relative="1" as="geometry">
            <mxPoint x="150" y="310" as="sourcePoint" />
            <mxPoint x="190" y="309.86" as="targetPoint" />
          </mxGeometry>
        </mxCell>
        <mxCell id="ShtHZLeGs-ZwjaO9lGIc-125" value="" style="endArrow=none;html=1;rounded=0;entryX=0;entryY=0.344;entryDx=0;entryDy=0;entryPerimeter=0;fillColor=#e51400;strokeColor=#000000;" parent="1" edge="1">
          <mxGeometry width="50" height="50" relative="1" as="geometry">
            <mxPoint x="150" y="330" as="sourcePoint" />
            <mxPoint x="190" y="329.86" as="targetPoint" />
          </mxGeometry>
        </mxCell>
        <mxCell id="ShtHZLeGs-ZwjaO9lGIc-126" value="" style="endArrow=none;html=1;rounded=0;entryX=0;entryY=0.344;entryDx=0;entryDy=0;entryPerimeter=0;fillColor=#e51400;strokeColor=#000000;" parent="1" edge="1">
          <mxGeometry width="50" height="50" relative="1" as="geometry">
            <mxPoint x="150" y="350" as="sourcePoint" />
            <mxPoint x="190" y="349.86" as="targetPoint" />
          </mxGeometry>
        </mxCell>
        <mxCell id="ShtHZLeGs-ZwjaO9lGIc-127" value="" style="endArrow=none;html=1;rounded=0;entryX=0;entryY=0.344;entryDx=0;entryDy=0;entryPerimeter=0;fillColor=#e51400;strokeColor=#000000;" parent="1" edge="1">
          <mxGeometry width="50" height="50" relative="1" as="geometry">
            <mxPoint x="150" y="370" as="sourcePoint" />
            <mxPoint x="190" y="369.86" as="targetPoint" />
          </mxGeometry>
        </mxCell>
        <mxCell id="ShtHZLeGs-ZwjaO9lGIc-139" value="GPIO" style="text;html=1;align=center;verticalAlign=middle;resizable=0;points=[];autosize=1;strokeColor=none;fillColor=none;" parent="1" vertex="1">
          <mxGeometry x="235" y="250" width="50" height="30" as="geometry" />
        </mxCell>
        <mxCell id="ShtHZLeGs-ZwjaO9lGIc-140" value="GPIO" style="text;html=1;align=center;verticalAlign=middle;resizable=0;points=[];autosize=1;strokeColor=none;fillColor=none;" parent="1" vertex="1">
          <mxGeometry x="235" y="270" width="50" height="30" as="geometry" />
        </mxCell>
        <mxCell id="ShtHZLeGs-ZwjaO9lGIc-141" value="GPIO" style="text;html=1;align=center;verticalAlign=middle;resizable=0;points=[];autosize=1;strokeColor=none;fillColor=none;" parent="1" vertex="1">
          <mxGeometry x="235" y="350" width="50" height="30" as="geometry" />
        </mxCell>
        <mxCell id="ShtHZLeGs-ZwjaO9lGIc-93" value="" style="group;strokeColor=#ff0000;container=0;" parent="1" connectable="0" vertex="1">
          <mxGeometry x="186" y="260" width="40" height="120" as="geometry" />
        </mxCell>
        <mxCell id="ShtHZLeGs-ZwjaO9lGIc-70" value="" style="rounded=0;whiteSpace=wrap;html=1;fillColor=#ffffff;fontColor=#ffffff;strokeColor=#000000;fontStyle=1;strokeWidth=2;" parent="1" vertex="1">
          <mxGeometry x="186" y="260" width="40" height="120" as="geometry" />
        </mxCell>
        <mxCell id="ShtHZLeGs-ZwjaO9lGIc-142" value="" style="group" parent="1" connectable="0" vertex="1">
          <mxGeometry x="190" y="266" width="30" height="110" as="geometry" />
        </mxCell>
        <mxCell id="ShtHZLeGs-ZwjaO9lGIc-72" value="" style="ellipse;whiteSpace=wrap;html=1;aspect=fixed;strokeColor=#CC0000;" parent="ShtHZLeGs-ZwjaO9lGIc-142" vertex="1">
          <mxGeometry width="10" height="10" as="geometry" />
        </mxCell>
        <mxCell id="ShtHZLeGs-ZwjaO9lGIc-73" value="" style="ellipse;whiteSpace=wrap;html=1;aspect=fixed;strokeColor=#CC0000;" parent="ShtHZLeGs-ZwjaO9lGIc-142" vertex="1">
          <mxGeometry y="20" width="10" height="10" as="geometry" />
        </mxCell>
        <mxCell id="ShtHZLeGs-ZwjaO9lGIc-74" value="" style="ellipse;whiteSpace=wrap;html=1;aspect=fixed;strokeColor=#CC0000;" parent="ShtHZLeGs-ZwjaO9lGIc-142" vertex="1">
          <mxGeometry y="40" width="10" height="10" as="geometry" />
        </mxCell>
        <mxCell id="ShtHZLeGs-ZwjaO9lGIc-75" value="" style="ellipse;whiteSpace=wrap;html=1;aspect=fixed;strokeColor=#CC0000;" parent="ShtHZLeGs-ZwjaO9lGIc-142" vertex="1">
          <mxGeometry y="60" width="10" height="10" as="geometry" />
        </mxCell>
        <mxCell id="ShtHZLeGs-ZwjaO9lGIc-76" value="" style="ellipse;whiteSpace=wrap;html=1;aspect=fixed;strokeColor=#CC0000;" parent="ShtHZLeGs-ZwjaO9lGIc-142" vertex="1">
          <mxGeometry y="80" width="10" height="10" as="geometry" />
        </mxCell>
        <mxCell id="ShtHZLeGs-ZwjaO9lGIc-77" value="" style="ellipse;whiteSpace=wrap;html=1;aspect=fixed;strokeColor=#CC0000;" parent="ShtHZLeGs-ZwjaO9lGIc-142" vertex="1">
          <mxGeometry y="100" width="10" height="10" as="geometry" />
        </mxCell>
        <mxCell id="ShtHZLeGs-ZwjaO9lGIc-85" value="" style="ellipse;whiteSpace=wrap;html=1;aspect=fixed;strokeColor=#CC0000;" parent="ShtHZLeGs-ZwjaO9lGIc-142" vertex="1">
          <mxGeometry x="20" y="80" width="10" height="10" as="geometry" />
        </mxCell>
        <mxCell id="ShtHZLeGs-ZwjaO9lGIc-86" value="" style="ellipse;whiteSpace=wrap;html=1;aspect=fixed;strokeColor=#CC0000;" parent="ShtHZLeGs-ZwjaO9lGIc-142" vertex="1">
          <mxGeometry x="20" y="100" width="10" height="10" as="geometry" />
        </mxCell>
        <mxCell id="ShtHZLeGs-ZwjaO9lGIc-89" value="" style="ellipse;whiteSpace=wrap;html=1;aspect=fixed;strokeColor=#CC0000;" parent="ShtHZLeGs-ZwjaO9lGIc-142" vertex="1">
          <mxGeometry x="20" width="10" height="10" as="geometry" />
        </mxCell>
        <mxCell id="ShtHZLeGs-ZwjaO9lGIc-90" value="" style="ellipse;whiteSpace=wrap;html=1;aspect=fixed;strokeColor=#CC0000;" parent="ShtHZLeGs-ZwjaO9lGIc-142" vertex="1">
          <mxGeometry x="20" y="20" width="10" height="10" as="geometry" />
        </mxCell>
        <mxCell id="ShtHZLeGs-ZwjaO9lGIc-91" value="" style="ellipse;whiteSpace=wrap;html=1;aspect=fixed;strokeColor=#CC0000;" parent="ShtHZLeGs-ZwjaO9lGIc-142" vertex="1">
          <mxGeometry x="20" y="40" width="10" height="10" as="geometry" />
        </mxCell>
        <mxCell id="ShtHZLeGs-ZwjaO9lGIc-92" value="" style="ellipse;whiteSpace=wrap;html=1;aspect=fixed;strokeColor=#CC0000;" parent="ShtHZLeGs-ZwjaO9lGIc-142" vertex="1">
          <mxGeometry x="20" y="60" width="10" height="10" as="geometry" />
        </mxCell>
        <mxCell id="ShtHZLeGs-ZwjaO9lGIc-144" value="" style="endArrow=none;html=1;rounded=0;entryX=0;entryY=0.344;entryDx=0;entryDy=0;entryPerimeter=0;fillColor=#e51400;strokeColor=#000000;" parent="1" edge="1">
          <mxGeometry width="50" height="50" relative="1" as="geometry">
            <mxPoint x="220" y="310" as="sourcePoint" />
            <mxPoint x="300" y="310" as="targetPoint" />
          </mxGeometry>
        </mxCell>
        <mxCell id="ShtHZLeGs-ZwjaO9lGIc-145" value="" style="endArrow=none;html=1;rounded=0;entryX=0;entryY=0.344;entryDx=0;entryDy=0;entryPerimeter=0;fillColor=#e51400;strokeColor=#000000;" parent="1" edge="1">
          <mxGeometry width="50" height="50" relative="1" as="geometry">
            <mxPoint x="220" y="290" as="sourcePoint" />
            <mxPoint x="300" y="290" as="targetPoint" />
          </mxGeometry>
        </mxCell>
        <mxCell id="ShtHZLeGs-ZwjaO9lGIc-146" value="" style="endArrow=none;html=1;rounded=0;fillColor=#e51400;strokeColor=#000000;" parent="1" edge="1">
          <mxGeometry width="50" height="50" relative="1" as="geometry">
            <mxPoint x="220" y="270" as="sourcePoint" />
            <mxPoint x="300" y="270" as="targetPoint" />
          </mxGeometry>
        </mxCell>
        <mxCell id="ShtHZLeGs-ZwjaO9lGIc-147" value="" style="endArrow=none;html=1;rounded=0;entryX=0;entryY=0.344;entryDx=0;entryDy=0;entryPerimeter=0;fillColor=#e51400;strokeColor=#000000;" parent="1" edge="1">
          <mxGeometry width="50" height="50" relative="1" as="geometry">
            <mxPoint x="220" y="330" as="sourcePoint" />
            <mxPoint x="300" y="330" as="targetPoint" />
          </mxGeometry>
        </mxCell>
        <mxCell id="ShtHZLeGs-ZwjaO9lGIc-148" value="" style="endArrow=none;html=1;rounded=0;entryX=0;entryY=0.344;entryDx=0;entryDy=0;entryPerimeter=0;fillColor=#e51400;strokeColor=#000000;" parent="1" edge="1">
          <mxGeometry width="50" height="50" relative="1" as="geometry">
            <mxPoint x="220" y="350" as="sourcePoint" />
            <mxPoint x="300" y="350" as="targetPoint" />
          </mxGeometry>
        </mxCell>
        <mxCell id="ShtHZLeGs-ZwjaO9lGIc-149" value="" style="endArrow=none;html=1;rounded=0;entryX=0;entryY=0.344;entryDx=0;entryDy=0;entryPerimeter=0;fillColor=#e51400;strokeColor=#000000;" parent="1" edge="1">
          <mxGeometry width="50" height="50" relative="1" as="geometry">
            <mxPoint x="220" y="370" as="sourcePoint" />
            <mxPoint x="300" y="370" as="targetPoint" />
          </mxGeometry>
        </mxCell>
        <mxCell id="ShtHZLeGs-ZwjaO9lGIc-150" value="Thermistor - 1" style="text;html=1;align=center;verticalAlign=middle;resizable=0;points=[];autosize=1;strokeColor=none;fillColor=none;" parent="1" vertex="1">
          <mxGeometry x="90" y="250" width="100" height="30" as="geometry" />
        </mxCell>
        <mxCell id="ShtHZLeGs-ZwjaO9lGIc-151" value="Thermistor - 2" style="text;html=1;align=center;verticalAlign=middle;resizable=0;points=[];autosize=1;strokeColor=none;fillColor=none;" parent="1" vertex="1">
          <mxGeometry x="90" y="270" width="100" height="30" as="geometry" />
        </mxCell>
        <mxCell id="ShtHZLeGs-ZwjaO9lGIc-152" value="Thermistor - nth" style="text;html=1;align=center;verticalAlign=middle;resizable=0;points=[];autosize=1;strokeColor=none;fillColor=none;" parent="1" vertex="1">
          <mxGeometry x="85" y="350" width="110" height="30" as="geometry" />
        </mxCell>
        <mxCell id="ShtHZLeGs-ZwjaO9lGIc-26" value="+" style="ellipse;whiteSpace=wrap;html=1;aspect=fixed;fillColor=none;fontColor=#000000;strokeColor=#FF0000;strokeWidth=2;fontStyle=1" parent="1" vertex="1">
          <mxGeometry x="147.14" y="757.1428571428571" width="42.857142857142854" height="42.857142857142854" as="geometry" />
        </mxCell>
        <mxCell id="gBHTzKcn6HgEQNSfiFQi-2" value="-" style="ellipse;whiteSpace=wrap;html=1;aspect=fixed;fillColor=none;fontColor=#000000;strokeColor=#000000;strokeWidth=2;fontStyle=1" vertex="1" parent="1">
          <mxGeometry x="760" y="757.1428571428571" width="42.857142857142854" height="42.857142857142854" as="geometry" />
        </mxCell>
        <mxCell id="gBHTzKcn6HgEQNSfiFQi-3" value="" style="curved=1;endArrow=classic;html=1;rounded=0;entryX=1;entryY=0.883;entryDx=0;entryDy=0;entryPerimeter=0;strokeWidth=2;exitX=0;exitY=0.5;exitDx=0;exitDy=0;strokeColor=#FF0000;" edge="1" parent="1" source="ShtHZLeGs-ZwjaO9lGIc-59">
          <mxGeometry width="50" height="50" relative="1" as="geometry">
            <mxPoint x="210" y="740" as="sourcePoint" />
            <mxPoint x="300" y="503" as="targetPoint" />
            <Array as="points">
              <mxPoint x="170" y="740" />
              <mxPoint x="130" y="710" />
              <mxPoint x="130" y="570" />
              <mxPoint x="170" y="500" />
            </Array>
          </mxGeometry>
        </mxCell>
        <mxCell id="gBHTzKcn6HgEQNSfiFQi-13" value="LTC6820&lt;br&gt;isoSPI interface" style="rounded=0;whiteSpace=wrap;html=1;" vertex="1" parent="1">
          <mxGeometry x="485" y="-140" width="80" height="80" as="geometry" />
        </mxCell>
        <mxCell id="gBHTzKcn6HgEQNSfiFQi-86" value="Battery Module High Potential" style="text;html=1;strokeColor=none;fillColor=none;align=center;verticalAlign=middle;whiteSpace=wrap;rounded=0;fontColor=#FF0000;" vertex="1" parent="1">
          <mxGeometry x="113.57" y="810" width="110" height="30" as="geometry" />
        </mxCell>
        <mxCell id="gBHTzKcn6HgEQNSfiFQi-88" value="Battery Module Low Potential" style="text;html=1;strokeColor=none;fillColor=none;align=center;verticalAlign=middle;whiteSpace=wrap;rounded=0;fontColor=#000000;" vertex="1" parent="1">
          <mxGeometry x="729.64" y="810" width="103.57" height="30" as="geometry" />
        </mxCell>
        <mxCell id="gBHTzKcn6HgEQNSfiFQi-168" value="isoSPI" style="text;html=1;strokeColor=none;fillColor=none;align=center;verticalAlign=middle;whiteSpace=wrap;rounded=0;fontColor=#000000;" vertex="1" parent="1">
          <mxGeometry x="506.43" y="20" width="103.57" height="30" as="geometry" />
        </mxCell>
        <mxCell id="gBHTzKcn6HgEQNSfiFQi-173" value="&lt;font style=&quot;font-size: 14px;&quot; color=&quot;#ffffff&quot;&gt;V+&lt;/font&gt;" style="text;html=1;strokeColor=none;fillColor=none;align=center;verticalAlign=middle;whiteSpace=wrap;rounded=0;" vertex="1" parent="1">
          <mxGeometry x="285" y="486" width="60" height="30" as="geometry" />
        </mxCell>
        <mxCell id="gBHTzKcn6HgEQNSfiFQi-174" value="&lt;font style=&quot;font-size: 14px;&quot; color=&quot;#ffffff&quot;&gt;V-&lt;/font&gt;" style="text;html=1;strokeColor=none;fillColor=none;align=center;verticalAlign=middle;whiteSpace=wrap;rounded=0;" vertex="1" parent="1">
          <mxGeometry x="575" y="486" width="60" height="30" as="geometry" />
        </mxCell>
        <mxCell id="gBHTzKcn6HgEQNSfiFQi-412" value="&lt;font style=&quot;font-size: 20px;&quot;&gt;&lt;b&gt;&lt;br&gt;&lt;br&gt;&lt;br&gt;&lt;br&gt;&lt;br&gt;&lt;br&gt;BATTERY MODULE X+1&lt;br&gt;&lt;/b&gt;&lt;/font&gt;" style="whiteSpace=wrap;html=1;strokeColor=#6c8ebf;fillColor=#dae8fc;strokeWidth=3;" vertex="1" parent="1">
          <mxGeometry x="-800" y="660" width="780" height="210" as="geometry" />
        </mxCell>
        <mxCell id="gBHTzKcn6HgEQNSfiFQi-413" value="&lt;font style=&quot;font-size: 20px;&quot;&gt;&lt;b&gt;&lt;br&gt;&lt;br&gt;&lt;br&gt;&lt;br&gt;&lt;br&gt;&lt;br&gt;&lt;br&gt;&amp;nbsp; &amp;nbsp;SLAVE BOARD X+1&lt;/b&gt;&lt;/font&gt;" style="whiteSpace=wrap;html=1;strokeColor=#9673a6;fillColor=#e1d5e7;strokeWidth=3;align=left;" vertex="1" parent="1">
          <mxGeometry x="-800" y="80" width="780" height="560" as="geometry" />
        </mxCell>
        <mxCell id="gBHTzKcn6HgEQNSfiFQi-414" value="" style="rounded=1;whiteSpace=wrap;html=1;fillColor=none;dashed=1;fontStyle=1;strokeWidth=2;" vertex="1" parent="1">
          <mxGeometry x="-680" y="570" width="550" height="230" as="geometry" />
        </mxCell>
        <mxCell id="gBHTzKcn6HgEQNSfiFQi-415" value="&lt;font style=&quot;font-size: 20px;&quot;&gt;LTC6813&lt;br&gt;Battery Stack Monitor&lt;/font&gt;" style="whiteSpace=wrap;html=1;aspect=fixed;strokeColor=#6F0000;fillColor=#a20025;strokeWidth=3;fontColor=#ffffff;" vertex="1" parent="1">
          <mxGeometry x="-580" y="220" width="320" height="320" as="geometry" />
        </mxCell>
        <mxCell id="gBHTzKcn6HgEQNSfiFQi-416" value="" style="edgeStyle=orthogonalEdgeStyle;rounded=0;orthogonalLoop=1;jettySize=auto;html=1;entryX=0.297;entryY=0.005;entryDx=0;entryDy=0;entryPerimeter=0;startArrow=classic;startFill=1;" edge="1" parent="1" source="gBHTzKcn6HgEQNSfiFQi-417" target="gBHTzKcn6HgEQNSfiFQi-415">
          <mxGeometry relative="1" as="geometry" />
        </mxCell>
        <mxCell id="gBHTzKcn6HgEQNSfiFQi-577" value="" style="edgeStyle=orthogonalEdgeStyle;rounded=0;orthogonalLoop=1;jettySize=auto;html=1;dashed=1;startArrow=classic;startFill=1;" edge="1" parent="1" source="gBHTzKcn6HgEQNSfiFQi-417">
          <mxGeometry relative="1" as="geometry">
            <mxPoint x="-800" y="20" as="targetPoint" />
            <Array as="points">
              <mxPoint x="-485" y="20" />
              <mxPoint x="-800" y="20" />
            </Array>
          </mxGeometry>
        </mxCell>
        <mxCell id="gBHTzKcn6HgEQNSfiFQi-417" value="Downstream isoSPI connector" style="rounded=0;whiteSpace=wrap;html=1;" vertex="1" parent="1">
          <mxGeometry x="-530" y="120" width="90" height="50" as="geometry" />
        </mxCell>
        <mxCell id="gBHTzKcn6HgEQNSfiFQi-418" value="" style="edgeStyle=orthogonalEdgeStyle;rounded=0;orthogonalLoop=1;jettySize=auto;html=1;entryX=0.702;entryY=0.003;entryDx=0;entryDy=0;entryPerimeter=0;startArrow=classic;startFill=1;" edge="1" parent="1" source="gBHTzKcn6HgEQNSfiFQi-419" target="gBHTzKcn6HgEQNSfiFQi-415">
          <mxGeometry relative="1" as="geometry" />
        </mxCell>
        <mxCell id="gBHTzKcn6HgEQNSfiFQi-419" value="Upstream isoSPI connector" style="rounded=0;whiteSpace=wrap;html=1;" vertex="1" parent="1">
          <mxGeometry x="-400" y="120" width="90" height="50" as="geometry" />
        </mxCell>
        <mxCell id="gBHTzKcn6HgEQNSfiFQi-420" value="Battery Cell - n" style="shape=process;whiteSpace=wrap;html=1;backgroundOutline=1;direction=west;flipV=1;flipH=1;" vertex="1" parent="1">
          <mxGeometry x="-630" y="710" width="100" height="60" as="geometry" />
        </mxCell>
        <mxCell id="gBHTzKcn6HgEQNSfiFQi-421" value="Battery Cell - 2" style="shape=process;whiteSpace=wrap;html=1;backgroundOutline=1;direction=west;" vertex="1" parent="1">
          <mxGeometry x="-510" y="710" width="100" height="60" as="geometry" />
        </mxCell>
        <mxCell id="gBHTzKcn6HgEQNSfiFQi-422" value="Battery Cell Connector (Cn/Sn)" style="rounded=0;whiteSpace=wrap;html=1;strokeWidth=2;" vertex="1" parent="1">
          <mxGeometry x="-560" y="590" width="270" height="30" as="geometry" />
        </mxCell>
        <mxCell id="gBHTzKcn6HgEQNSfiFQi-423" value="" style="endArrow=none;html=1;rounded=0;entryX=0.484;entryY=1;entryDx=0;entryDy=0;entryPerimeter=0;" edge="1" parent="1" target="gBHTzKcn6HgEQNSfiFQi-415">
          <mxGeometry width="50" height="50" relative="1" as="geometry">
            <mxPoint x="-425" y="590" as="sourcePoint" />
            <mxPoint x="-490" y="570" as="targetPoint" />
          </mxGeometry>
        </mxCell>
        <mxCell id="gBHTzKcn6HgEQNSfiFQi-424" value="Battery Cell - 1" style="shape=process;whiteSpace=wrap;html=1;backgroundOutline=1;direction=west;" vertex="1" parent="1">
          <mxGeometry x="-390" y="710" width="100" height="60" as="geometry" />
        </mxCell>
        <mxCell id="gBHTzKcn6HgEQNSfiFQi-425" value="" style="endArrow=none;html=1;rounded=0;dashed=1;" edge="1" parent="1" source="gBHTzKcn6HgEQNSfiFQi-438">
          <mxGeometry width="50" height="50" relative="1" as="geometry">
            <mxPoint x="-410" y="739.88" as="sourcePoint" />
            <mxPoint x="-390" y="740.02" as="targetPoint" />
          </mxGeometry>
        </mxCell>
        <mxCell id="gBHTzKcn6HgEQNSfiFQi-426" value="" style="endArrow=none;html=1;rounded=0;entryX=0.035;entryY=1.042;entryDx=0;entryDy=0;entryPerimeter=0;fillColor=#e51400;strokeColor=#B20000;exitX=0.5;exitY=0;exitDx=0;exitDy=0;" edge="1" parent="1" source="gBHTzKcn6HgEQNSfiFQi-434" target="gBHTzKcn6HgEQNSfiFQi-422">
          <mxGeometry width="50" height="50" relative="1" as="geometry">
            <mxPoint x="-650" y="720" as="sourcePoint" />
            <mxPoint x="-450" y="690" as="targetPoint" />
            <Array as="points">
              <mxPoint x="-635" y="690" />
              <mxPoint x="-550" y="690" />
            </Array>
          </mxGeometry>
        </mxCell>
        <mxCell id="gBHTzKcn6HgEQNSfiFQi-427" value="" style="endArrow=none;html=1;rounded=0;entryX=0.167;entryY=1.067;entryDx=0;entryDy=0;entryPerimeter=0;fillColor=#e51400;strokeColor=#B20000;exitX=0.5;exitY=0;exitDx=0;exitDy=0;" edge="1" parent="1" source="gBHTzKcn6HgEQNSfiFQi-436" target="gBHTzKcn6HgEQNSfiFQi-422">
          <mxGeometry width="50" height="50" relative="1" as="geometry">
            <mxPoint x="-400" y="740" as="sourcePoint" />
            <mxPoint x="-350" y="560" as="targetPoint" />
            <Array as="points">
              <mxPoint x="-515" y="670" />
            </Array>
          </mxGeometry>
        </mxCell>
        <mxCell id="gBHTzKcn6HgEQNSfiFQi-428" value="" style="curved=1;endArrow=classic;html=1;rounded=0;entryX=1;entryY=0.883;entryDx=0;entryDy=0;entryPerimeter=0;strokeWidth=2;exitX=0;exitY=0.5;exitDx=0;exitDy=0;" edge="1" parent="1" source="gBHTzKcn6HgEQNSfiFQi-431" target="gBHTzKcn6HgEQNSfiFQi-415">
          <mxGeometry width="50" height="50" relative="1" as="geometry">
            <mxPoint x="-220" y="830" as="sourcePoint" />
            <mxPoint x="-100" y="780" as="targetPoint" />
            <Array as="points">
              <mxPoint x="-130" y="740" />
              <mxPoint x="-90" y="710" />
              <mxPoint x="-90" y="570" />
              <mxPoint x="-130" y="500" />
            </Array>
          </mxGeometry>
        </mxCell>
        <mxCell id="gBHTzKcn6HgEQNSfiFQi-429" value="" style="endArrow=none;html=1;rounded=0;fillColor=#e51400;strokeColor=#000000;" edge="1" parent="1">
          <mxGeometry width="50" height="50" relative="1" as="geometry">
            <mxPoint x="-150" y="740" as="sourcePoint" />
            <mxPoint x="-300" y="620" as="targetPoint" />
            <Array as="points">
              <mxPoint x="-150" y="660" />
              <mxPoint x="-300" y="660" />
            </Array>
          </mxGeometry>
        </mxCell>
        <mxCell id="gBHTzKcn6HgEQNSfiFQi-430" value="" style="endArrow=none;html=1;rounded=0;dashed=1;" edge="1" parent="1" source="gBHTzKcn6HgEQNSfiFQi-436">
          <mxGeometry width="50" height="50" relative="1" as="geometry">
            <mxPoint x="-530" y="739.88" as="sourcePoint" />
            <mxPoint x="-510" y="740.02" as="targetPoint" />
          </mxGeometry>
        </mxCell>
        <mxCell id="gBHTzKcn6HgEQNSfiFQi-431" value="Battery Cell - 0" style="shape=process;whiteSpace=wrap;html=1;backgroundOutline=1;direction=west;" vertex="1" parent="1">
          <mxGeometry x="-270" y="710" width="100" height="60" as="geometry" />
        </mxCell>
        <mxCell id="gBHTzKcn6HgEQNSfiFQi-432" value="" style="endArrow=none;html=1;rounded=0;dashed=1;" edge="1" parent="1">
          <mxGeometry width="50" height="50" relative="1" as="geometry">
            <mxPoint x="-290" y="739.88" as="sourcePoint" />
            <mxPoint x="-270" y="740.02" as="targetPoint" />
          </mxGeometry>
        </mxCell>
        <mxCell id="gBHTzKcn6HgEQNSfiFQi-433" value="" style="endArrow=none;html=1;rounded=0;fillColor=#e51400;strokeColor=#B20000;exitX=0.5;exitY=0;exitDx=0;exitDy=0;" edge="1" parent="1" source="gBHTzKcn6HgEQNSfiFQi-439">
          <mxGeometry width="50" height="50" relative="1" as="geometry">
            <mxPoint x="-280" y="740" as="sourcePoint" />
            <mxPoint x="-330" y="620" as="targetPoint" />
            <Array as="points">
              <mxPoint x="-275" y="688" />
              <mxPoint x="-330" y="688" />
            </Array>
          </mxGeometry>
        </mxCell>
        <mxCell id="gBHTzKcn6HgEQNSfiFQi-434" value="" style="rounded=0;whiteSpace=wrap;html=1;fillColor=#e51400;fontColor=#ffffff;strokeColor=#B20000;flipV=1;flipH=1;" vertex="1" parent="1">
          <mxGeometry x="-640" y="730" width="10" height="20" as="geometry" />
        </mxCell>
        <mxCell id="gBHTzKcn6HgEQNSfiFQi-435" value="" style="endArrow=none;html=1;rounded=0;dashed=1;" edge="1" parent="1" target="gBHTzKcn6HgEQNSfiFQi-436">
          <mxGeometry width="50" height="50" relative="1" as="geometry">
            <mxPoint x="-530" y="739.88" as="sourcePoint" />
            <mxPoint x="-510" y="740.02" as="targetPoint" />
          </mxGeometry>
        </mxCell>
        <mxCell id="gBHTzKcn6HgEQNSfiFQi-436" value="" style="rounded=0;whiteSpace=wrap;html=1;fillColor=#e51400;fontColor=#ffffff;strokeColor=#B20000;" vertex="1" parent="1">
          <mxGeometry x="-520" y="730" width="10" height="20" as="geometry" />
        </mxCell>
        <mxCell id="gBHTzKcn6HgEQNSfiFQi-437" value="" style="endArrow=none;html=1;rounded=0;dashed=1;" edge="1" parent="1" target="gBHTzKcn6HgEQNSfiFQi-438">
          <mxGeometry width="50" height="50" relative="1" as="geometry">
            <mxPoint x="-410" y="739.88" as="sourcePoint" />
            <mxPoint x="-390" y="740.02" as="targetPoint" />
          </mxGeometry>
        </mxCell>
        <mxCell id="gBHTzKcn6HgEQNSfiFQi-438" value="" style="rounded=0;whiteSpace=wrap;html=1;fillColor=#e51400;fontColor=#ffffff;strokeColor=#B20000;" vertex="1" parent="1">
          <mxGeometry x="-400" y="730" width="10" height="20" as="geometry" />
        </mxCell>
        <mxCell id="gBHTzKcn6HgEQNSfiFQi-439" value="" style="rounded=0;whiteSpace=wrap;html=1;fillColor=#e51400;fontColor=#ffffff;strokeColor=#B20000;" vertex="1" parent="1">
          <mxGeometry x="-280" y="730" width="10" height="20" as="geometry" />
        </mxCell>
        <mxCell id="gBHTzKcn6HgEQNSfiFQi-440" value="" style="endArrow=none;html=1;rounded=0;entryX=0.296;entryY=1;entryDx=0;entryDy=0;entryPerimeter=0;fillColor=#e51400;strokeColor=#B20000;exitX=0.5;exitY=0;exitDx=0;exitDy=0;" edge="1" parent="1" target="gBHTzKcn6HgEQNSfiFQi-422">
          <mxGeometry width="50" height="50" relative="1" as="geometry">
            <mxPoint x="-394" y="730" as="sourcePoint" />
            <mxPoint x="-400" y="562" as="targetPoint" />
            <Array as="points">
              <mxPoint x="-394" y="680" />
              <mxPoint x="-480" y="680" />
            </Array>
          </mxGeometry>
        </mxCell>
        <mxCell id="gBHTzKcn6HgEQNSfiFQi-441" value="" style="endArrow=none;html=1;rounded=0;fillColor=#e51400;strokeColor=#B20000;" edge="1" parent="1">
          <mxGeometry width="50" height="50" relative="1" as="geometry">
            <mxPoint x="-660" y="270" as="sourcePoint" />
            <mxPoint x="-580" y="270" as="targetPoint" />
          </mxGeometry>
        </mxCell>
        <mxCell id="gBHTzKcn6HgEQNSfiFQi-442" value="" style="endArrow=none;html=1;rounded=0;entryX=0;entryY=0.344;entryDx=0;entryDy=0;entryPerimeter=0;fillColor=#e51400;strokeColor=#B20000;" edge="1" parent="1">
          <mxGeometry width="50" height="50" relative="1" as="geometry">
            <mxPoint x="-660" y="290" as="sourcePoint" />
            <mxPoint x="-580" y="290" as="targetPoint" />
          </mxGeometry>
        </mxCell>
        <mxCell id="gBHTzKcn6HgEQNSfiFQi-443" value="" style="endArrow=none;html=1;rounded=0;entryX=0;entryY=0.344;entryDx=0;entryDy=0;entryPerimeter=0;fillColor=#e51400;strokeColor=#B20000;" edge="1" parent="1">
          <mxGeometry width="50" height="50" relative="1" as="geometry">
            <mxPoint x="-660" y="310" as="sourcePoint" />
            <mxPoint x="-580" y="310" as="targetPoint" />
          </mxGeometry>
        </mxCell>
        <mxCell id="gBHTzKcn6HgEQNSfiFQi-444" value="" style="endArrow=none;html=1;rounded=0;entryX=0;entryY=0.344;entryDx=0;entryDy=0;entryPerimeter=0;fillColor=#e51400;strokeColor=#B20000;" edge="1" parent="1">
          <mxGeometry width="50" height="50" relative="1" as="geometry">
            <mxPoint x="-660" y="330" as="sourcePoint" />
            <mxPoint x="-580" y="330" as="targetPoint" />
          </mxGeometry>
        </mxCell>
        <mxCell id="gBHTzKcn6HgEQNSfiFQi-445" value="" style="endArrow=none;html=1;rounded=0;entryX=0;entryY=0.344;entryDx=0;entryDy=0;entryPerimeter=0;fillColor=#e51400;strokeColor=#B20000;" edge="1" parent="1">
          <mxGeometry width="50" height="50" relative="1" as="geometry">
            <mxPoint x="-660" y="350" as="sourcePoint" />
            <mxPoint x="-580" y="350" as="targetPoint" />
          </mxGeometry>
        </mxCell>
        <mxCell id="gBHTzKcn6HgEQNSfiFQi-446" value="" style="endArrow=none;html=1;rounded=0;entryX=0;entryY=0.344;entryDx=0;entryDy=0;entryPerimeter=0;fillColor=#e51400;strokeColor=#B20000;" edge="1" parent="1">
          <mxGeometry width="50" height="50" relative="1" as="geometry">
            <mxPoint x="-660" y="370" as="sourcePoint" />
            <mxPoint x="-580" y="370" as="targetPoint" />
          </mxGeometry>
        </mxCell>
        <mxCell id="gBHTzKcn6HgEQNSfiFQi-447" value="" style="endArrow=none;html=1;rounded=0;entryX=0;entryY=0.344;entryDx=0;entryDy=0;entryPerimeter=0;fillColor=#e51400;strokeColor=#000000;" edge="1" parent="1">
          <mxGeometry width="50" height="50" relative="1" as="geometry">
            <mxPoint x="-730" y="270" as="sourcePoint" />
            <mxPoint x="-690" y="269.86" as="targetPoint" />
          </mxGeometry>
        </mxCell>
        <mxCell id="gBHTzKcn6HgEQNSfiFQi-448" value="" style="endArrow=none;html=1;rounded=0;entryX=0;entryY=0.344;entryDx=0;entryDy=0;entryPerimeter=0;fillColor=#e51400;strokeColor=#000000;" edge="1" parent="1">
          <mxGeometry width="50" height="50" relative="1" as="geometry">
            <mxPoint x="-730" y="290" as="sourcePoint" />
            <mxPoint x="-690" y="289.86" as="targetPoint" />
          </mxGeometry>
        </mxCell>
        <mxCell id="gBHTzKcn6HgEQNSfiFQi-449" value="" style="endArrow=none;html=1;rounded=0;entryX=0;entryY=0.344;entryDx=0;entryDy=0;entryPerimeter=0;fillColor=#e51400;strokeColor=#000000;" edge="1" parent="1">
          <mxGeometry width="50" height="50" relative="1" as="geometry">
            <mxPoint x="-730" y="310" as="sourcePoint" />
            <mxPoint x="-690" y="309.86" as="targetPoint" />
          </mxGeometry>
        </mxCell>
        <mxCell id="gBHTzKcn6HgEQNSfiFQi-450" value="" style="endArrow=none;html=1;rounded=0;entryX=0;entryY=0.344;entryDx=0;entryDy=0;entryPerimeter=0;fillColor=#e51400;strokeColor=#000000;" edge="1" parent="1">
          <mxGeometry width="50" height="50" relative="1" as="geometry">
            <mxPoint x="-730" y="330" as="sourcePoint" />
            <mxPoint x="-690" y="329.86" as="targetPoint" />
          </mxGeometry>
        </mxCell>
        <mxCell id="gBHTzKcn6HgEQNSfiFQi-451" value="" style="endArrow=none;html=1;rounded=0;entryX=0;entryY=0.344;entryDx=0;entryDy=0;entryPerimeter=0;fillColor=#e51400;strokeColor=#000000;" edge="1" parent="1">
          <mxGeometry width="50" height="50" relative="1" as="geometry">
            <mxPoint x="-730" y="350" as="sourcePoint" />
            <mxPoint x="-690" y="349.86" as="targetPoint" />
          </mxGeometry>
        </mxCell>
        <mxCell id="gBHTzKcn6HgEQNSfiFQi-452" value="" style="endArrow=none;html=1;rounded=0;entryX=0;entryY=0.344;entryDx=0;entryDy=0;entryPerimeter=0;fillColor=#e51400;strokeColor=#000000;" edge="1" parent="1">
          <mxGeometry width="50" height="50" relative="1" as="geometry">
            <mxPoint x="-730" y="370" as="sourcePoint" />
            <mxPoint x="-690" y="369.86" as="targetPoint" />
          </mxGeometry>
        </mxCell>
        <mxCell id="gBHTzKcn6HgEQNSfiFQi-453" value="GPIO" style="text;html=1;align=center;verticalAlign=middle;resizable=0;points=[];autosize=1;strokeColor=none;fillColor=none;" vertex="1" parent="1">
          <mxGeometry x="-645" y="250" width="50" height="30" as="geometry" />
        </mxCell>
        <mxCell id="gBHTzKcn6HgEQNSfiFQi-454" value="GPIO" style="text;html=1;align=center;verticalAlign=middle;resizable=0;points=[];autosize=1;strokeColor=none;fillColor=none;" vertex="1" parent="1">
          <mxGeometry x="-645" y="270" width="50" height="30" as="geometry" />
        </mxCell>
        <mxCell id="gBHTzKcn6HgEQNSfiFQi-455" value="GPIO" style="text;html=1;align=center;verticalAlign=middle;resizable=0;points=[];autosize=1;strokeColor=none;fillColor=none;" vertex="1" parent="1">
          <mxGeometry x="-645" y="350" width="50" height="30" as="geometry" />
        </mxCell>
        <mxCell id="gBHTzKcn6HgEQNSfiFQi-456" value="" style="group;strokeColor=#ff0000;container=0;" connectable="0" vertex="1" parent="1">
          <mxGeometry x="-694" y="260" width="40" height="120" as="geometry" />
        </mxCell>
        <mxCell id="gBHTzKcn6HgEQNSfiFQi-457" value="" style="rounded=0;whiteSpace=wrap;html=1;fillColor=#ffffff;fontColor=#ffffff;strokeColor=#000000;fontStyle=1;strokeWidth=2;" vertex="1" parent="1">
          <mxGeometry x="-694" y="260" width="40" height="120" as="geometry" />
        </mxCell>
        <mxCell id="gBHTzKcn6HgEQNSfiFQi-458" value="" style="group" connectable="0" vertex="1" parent="1">
          <mxGeometry x="-690" y="266" width="30" height="110" as="geometry" />
        </mxCell>
        <mxCell id="gBHTzKcn6HgEQNSfiFQi-459" value="" style="ellipse;whiteSpace=wrap;html=1;aspect=fixed;strokeColor=#CC0000;" vertex="1" parent="gBHTzKcn6HgEQNSfiFQi-458">
          <mxGeometry width="10" height="10" as="geometry" />
        </mxCell>
        <mxCell id="gBHTzKcn6HgEQNSfiFQi-460" value="" style="ellipse;whiteSpace=wrap;html=1;aspect=fixed;strokeColor=#CC0000;" vertex="1" parent="gBHTzKcn6HgEQNSfiFQi-458">
          <mxGeometry y="20" width="10" height="10" as="geometry" />
        </mxCell>
        <mxCell id="gBHTzKcn6HgEQNSfiFQi-461" value="" style="ellipse;whiteSpace=wrap;html=1;aspect=fixed;strokeColor=#CC0000;" vertex="1" parent="gBHTzKcn6HgEQNSfiFQi-458">
          <mxGeometry y="40" width="10" height="10" as="geometry" />
        </mxCell>
        <mxCell id="gBHTzKcn6HgEQNSfiFQi-462" value="" style="ellipse;whiteSpace=wrap;html=1;aspect=fixed;strokeColor=#CC0000;" vertex="1" parent="gBHTzKcn6HgEQNSfiFQi-458">
          <mxGeometry y="60" width="10" height="10" as="geometry" />
        </mxCell>
        <mxCell id="gBHTzKcn6HgEQNSfiFQi-463" value="" style="ellipse;whiteSpace=wrap;html=1;aspect=fixed;strokeColor=#CC0000;" vertex="1" parent="gBHTzKcn6HgEQNSfiFQi-458">
          <mxGeometry y="80" width="10" height="10" as="geometry" />
        </mxCell>
        <mxCell id="gBHTzKcn6HgEQNSfiFQi-464" value="" style="ellipse;whiteSpace=wrap;html=1;aspect=fixed;strokeColor=#CC0000;" vertex="1" parent="gBHTzKcn6HgEQNSfiFQi-458">
          <mxGeometry y="100" width="10" height="10" as="geometry" />
        </mxCell>
        <mxCell id="gBHTzKcn6HgEQNSfiFQi-465" value="" style="ellipse;whiteSpace=wrap;html=1;aspect=fixed;strokeColor=#CC0000;" vertex="1" parent="gBHTzKcn6HgEQNSfiFQi-458">
          <mxGeometry x="20" y="80" width="10" height="10" as="geometry" />
        </mxCell>
        <mxCell id="gBHTzKcn6HgEQNSfiFQi-466" value="" style="ellipse;whiteSpace=wrap;html=1;aspect=fixed;strokeColor=#CC0000;" vertex="1" parent="gBHTzKcn6HgEQNSfiFQi-458">
          <mxGeometry x="20" y="100" width="10" height="10" as="geometry" />
        </mxCell>
        <mxCell id="gBHTzKcn6HgEQNSfiFQi-467" value="" style="ellipse;whiteSpace=wrap;html=1;aspect=fixed;strokeColor=#CC0000;" vertex="1" parent="gBHTzKcn6HgEQNSfiFQi-458">
          <mxGeometry x="20" width="10" height="10" as="geometry" />
        </mxCell>
        <mxCell id="gBHTzKcn6HgEQNSfiFQi-468" value="" style="ellipse;whiteSpace=wrap;html=1;aspect=fixed;strokeColor=#CC0000;" vertex="1" parent="gBHTzKcn6HgEQNSfiFQi-458">
          <mxGeometry x="20" y="20" width="10" height="10" as="geometry" />
        </mxCell>
        <mxCell id="gBHTzKcn6HgEQNSfiFQi-469" value="" style="ellipse;whiteSpace=wrap;html=1;aspect=fixed;strokeColor=#CC0000;" vertex="1" parent="gBHTzKcn6HgEQNSfiFQi-458">
          <mxGeometry x="20" y="40" width="10" height="10" as="geometry" />
        </mxCell>
        <mxCell id="gBHTzKcn6HgEQNSfiFQi-470" value="" style="ellipse;whiteSpace=wrap;html=1;aspect=fixed;strokeColor=#CC0000;" vertex="1" parent="gBHTzKcn6HgEQNSfiFQi-458">
          <mxGeometry x="20" y="60" width="10" height="10" as="geometry" />
        </mxCell>
        <mxCell id="gBHTzKcn6HgEQNSfiFQi-471" value="" style="endArrow=none;html=1;rounded=0;entryX=0;entryY=0.344;entryDx=0;entryDy=0;entryPerimeter=0;fillColor=#e51400;strokeColor=#000000;" edge="1" parent="1">
          <mxGeometry width="50" height="50" relative="1" as="geometry">
            <mxPoint x="-660" y="310" as="sourcePoint" />
            <mxPoint x="-580" y="310" as="targetPoint" />
          </mxGeometry>
        </mxCell>
        <mxCell id="gBHTzKcn6HgEQNSfiFQi-472" value="" style="endArrow=none;html=1;rounded=0;entryX=0;entryY=0.344;entryDx=0;entryDy=0;entryPerimeter=0;fillColor=#e51400;strokeColor=#000000;" edge="1" parent="1">
          <mxGeometry width="50" height="50" relative="1" as="geometry">
            <mxPoint x="-660" y="290" as="sourcePoint" />
            <mxPoint x="-580" y="290" as="targetPoint" />
          </mxGeometry>
        </mxCell>
        <mxCell id="gBHTzKcn6HgEQNSfiFQi-473" value="" style="endArrow=none;html=1;rounded=0;fillColor=#e51400;strokeColor=#000000;" edge="1" parent="1">
          <mxGeometry width="50" height="50" relative="1" as="geometry">
            <mxPoint x="-660" y="270" as="sourcePoint" />
            <mxPoint x="-580" y="270" as="targetPoint" />
          </mxGeometry>
        </mxCell>
        <mxCell id="gBHTzKcn6HgEQNSfiFQi-474" value="" style="endArrow=none;html=1;rounded=0;entryX=0;entryY=0.344;entryDx=0;entryDy=0;entryPerimeter=0;fillColor=#e51400;strokeColor=#000000;" edge="1" parent="1">
          <mxGeometry width="50" height="50" relative="1" as="geometry">
            <mxPoint x="-660" y="330" as="sourcePoint" />
            <mxPoint x="-580" y="330" as="targetPoint" />
          </mxGeometry>
        </mxCell>
        <mxCell id="gBHTzKcn6HgEQNSfiFQi-475" value="" style="endArrow=none;html=1;rounded=0;entryX=0;entryY=0.344;entryDx=0;entryDy=0;entryPerimeter=0;fillColor=#e51400;strokeColor=#000000;" edge="1" parent="1">
          <mxGeometry width="50" height="50" relative="1" as="geometry">
            <mxPoint x="-660" y="350" as="sourcePoint" />
            <mxPoint x="-580" y="350" as="targetPoint" />
          </mxGeometry>
        </mxCell>
        <mxCell id="gBHTzKcn6HgEQNSfiFQi-476" value="" style="endArrow=none;html=1;rounded=0;entryX=0;entryY=0.344;entryDx=0;entryDy=0;entryPerimeter=0;fillColor=#e51400;strokeColor=#000000;" edge="1" parent="1">
          <mxGeometry width="50" height="50" relative="1" as="geometry">
            <mxPoint x="-660" y="370" as="sourcePoint" />
            <mxPoint x="-580" y="370" as="targetPoint" />
          </mxGeometry>
        </mxCell>
        <mxCell id="gBHTzKcn6HgEQNSfiFQi-477" value="Thermistor - 1" style="text;html=1;align=center;verticalAlign=middle;resizable=0;points=[];autosize=1;strokeColor=none;fillColor=none;" vertex="1" parent="1">
          <mxGeometry x="-790" y="250" width="100" height="30" as="geometry" />
        </mxCell>
        <mxCell id="gBHTzKcn6HgEQNSfiFQi-478" value="Thermistor - 2" style="text;html=1;align=center;verticalAlign=middle;resizable=0;points=[];autosize=1;strokeColor=none;fillColor=none;" vertex="1" parent="1">
          <mxGeometry x="-790" y="270" width="100" height="30" as="geometry" />
        </mxCell>
        <mxCell id="gBHTzKcn6HgEQNSfiFQi-479" value="Thermistor - nth" style="text;html=1;align=center;verticalAlign=middle;resizable=0;points=[];autosize=1;strokeColor=none;fillColor=none;" vertex="1" parent="1">
          <mxGeometry x="-795" y="350" width="110" height="30" as="geometry" />
        </mxCell>
        <mxCell id="gBHTzKcn6HgEQNSfiFQi-480" value="+" style="ellipse;whiteSpace=wrap;html=1;aspect=fixed;fillColor=none;fontColor=#000000;strokeColor=#FF0000;strokeWidth=2;fontStyle=1" vertex="1" parent="1">
          <mxGeometry x="-732.86" y="757.1428571428571" width="42.857142857142854" height="42.857142857142854" as="geometry" />
        </mxCell>
        <mxCell id="gBHTzKcn6HgEQNSfiFQi-488" value="" style="edgeStyle=orthogonalEdgeStyle;rounded=0;orthogonalLoop=1;jettySize=auto;html=1;entryX=0;entryY=0.5;entryDx=0;entryDy=0;endArrow=none;endFill=0;strokeWidth=20;strokeColor=#FF8000;" edge="1" parent="1" source="gBHTzKcn6HgEQNSfiFQi-481" target="ShtHZLeGs-ZwjaO9lGIc-26">
          <mxGeometry relative="1" as="geometry">
            <mxPoint x="24.28571428571422" y="778.5714285714284" as="targetPoint" />
          </mxGeometry>
        </mxCell>
        <mxCell id="gBHTzKcn6HgEQNSfiFQi-481" value="-" style="ellipse;whiteSpace=wrap;html=1;aspect=fixed;fillColor=none;fontColor=#000000;strokeColor=#000000;strokeWidth=2;fontStyle=1" vertex="1" parent="1">
          <mxGeometry x="-120" y="757.1428571428571" width="42.857142857142854" height="42.857142857142854" as="geometry" />
        </mxCell>
        <mxCell id="gBHTzKcn6HgEQNSfiFQi-482" value="" style="curved=1;endArrow=classic;html=1;rounded=0;entryX=1;entryY=0.883;entryDx=0;entryDy=0;entryPerimeter=0;strokeWidth=2;exitX=0;exitY=0.5;exitDx=0;exitDy=0;strokeColor=#FF0000;" edge="1" parent="1" source="gBHTzKcn6HgEQNSfiFQi-434">
          <mxGeometry width="50" height="50" relative="1" as="geometry">
            <mxPoint x="-670" y="740" as="sourcePoint" />
            <mxPoint x="-580" y="503" as="targetPoint" />
            <Array as="points">
              <mxPoint x="-710" y="740" />
              <mxPoint x="-750" y="710" />
              <mxPoint x="-750" y="570" />
              <mxPoint x="-710" y="500" />
            </Array>
          </mxGeometry>
        </mxCell>
        <mxCell id="gBHTzKcn6HgEQNSfiFQi-483" value="Battery Module High Potential" style="text;html=1;strokeColor=none;fillColor=none;align=center;verticalAlign=middle;whiteSpace=wrap;rounded=0;fontColor=#FF0000;" vertex="1" parent="1">
          <mxGeometry x="-766.4300000000001" y="810" width="110" height="30" as="geometry" />
        </mxCell>
        <mxCell id="gBHTzKcn6HgEQNSfiFQi-484" value="Battery Module Low Potential" style="text;html=1;strokeColor=none;fillColor=none;align=center;verticalAlign=middle;whiteSpace=wrap;rounded=0;fontColor=#000000;" vertex="1" parent="1">
          <mxGeometry x="-150.36" y="810" width="103.57" height="30" as="geometry" />
        </mxCell>
        <mxCell id="gBHTzKcn6HgEQNSfiFQi-485" value="&lt;font style=&quot;font-size: 14px;&quot; color=&quot;#ffffff&quot;&gt;V+&lt;/font&gt;" style="text;html=1;strokeColor=none;fillColor=none;align=center;verticalAlign=middle;whiteSpace=wrap;rounded=0;" vertex="1" parent="1">
          <mxGeometry x="-595" y="486" width="60" height="30" as="geometry" />
        </mxCell>
        <mxCell id="gBHTzKcn6HgEQNSfiFQi-486" value="&lt;font style=&quot;font-size: 14px;&quot; color=&quot;#ffffff&quot;&gt;V-&lt;/font&gt;" style="text;html=1;strokeColor=none;fillColor=none;align=center;verticalAlign=middle;whiteSpace=wrap;rounded=0;" vertex="1" parent="1">
          <mxGeometry x="-305" y="486" width="60" height="30" as="geometry" />
        </mxCell>
        <mxCell id="gBHTzKcn6HgEQNSfiFQi-489" value="Shorted by vehicle busbar" style="text;html=1;strokeColor=none;fillColor=none;align=center;verticalAlign=middle;whiteSpace=wrap;rounded=0;fontColor=#000000;" vertex="1" parent="1">
          <mxGeometry x="-17.57" y="732" width="93.57" height="30" as="geometry" />
        </mxCell>
        <mxCell id="gBHTzKcn6HgEQNSfiFQi-491" value="" style="edgeStyle=orthogonalEdgeStyle;rounded=0;orthogonalLoop=1;jettySize=auto;html=1;entryX=0.5;entryY=0;entryDx=0;entryDy=0;startArrow=classic;startFill=1;" edge="1" parent="1" source="ShtHZLeGs-ZwjaO9lGIc-3" target="gBHTzKcn6HgEQNSfiFQi-419">
          <mxGeometry relative="1" as="geometry">
            <mxPoint x="395.00000000000045" y="15" as="targetPoint" />
            <Array as="points">
              <mxPoint x="395" y="20" />
              <mxPoint x="-355" y="20" />
            </Array>
          </mxGeometry>
        </mxCell>
        <mxCell id="gBHTzKcn6HgEQNSfiFQi-492" value="isoSPI" style="text;html=1;strokeColor=none;fillColor=none;align=center;verticalAlign=middle;whiteSpace=wrap;rounded=0;fontColor=#000000;" vertex="1" parent="1">
          <mxGeometry x="-22.569999999999936" y="-10" width="103.57" height="30" as="geometry" />
        </mxCell>
        <mxCell id="gBHTzKcn6HgEQNSfiFQi-578" value="isoSPI" style="text;html=1;strokeColor=none;fillColor=none;align=center;verticalAlign=middle;whiteSpace=wrap;rounded=0;fontColor=#000000;" vertex="1" parent="1">
          <mxGeometry x="-686.79" y="-10" width="103.57" height="30" as="geometry" />
        </mxCell>
        <mxCell id="gBHTzKcn6HgEQNSfiFQi-654" value="" style="edgeStyle=orthogonalEdgeStyle;rounded=0;orthogonalLoop=1;jettySize=auto;html=1;entryX=0;entryY=0.5;entryDx=0;entryDy=0;endArrow=none;endFill=0;strokeWidth=20;strokeColor=#FF8000;dashed=1;dashPattern=1 1;" edge="1" parent="1">
          <mxGeometry relative="1" as="geometry">
            <mxPoint x="-910" y="780" as="sourcePoint" />
            <mxPoint x="-732.86" y="780" as="targetPoint" />
          </mxGeometry>
        </mxCell>
        <mxCell id="gBHTzKcn6HgEQNSfiFQi-655" value="Shorted by vehicle busbar" style="text;html=1;strokeColor=none;fillColor=none;align=center;verticalAlign=middle;whiteSpace=wrap;rounded=0;fontColor=#000000;" vertex="1" parent="1">
          <mxGeometry x="-900" y="730" width="93.57" height="30" as="geometry" />
        </mxCell>
      </root>
    </mxGraphModel>
  </diagram>
</mxfile>
